<svg width="21" height="20" viewBox="0 0 21 20" fill="none" xmlns="http://www.w3.org/2000/svg">
<circle cx="10.3281" cy="10" r="10" fill="#2555F8"/>
<path d="M17.3872 12.7888C17.3869 13.7143 17.0569 14.6119 16.4519 15.333C15.8469 16.0542 15.0032 16.5556 14.0604 16.7544L13.61 15.4591C14.0224 15.394 14.4146 15.242 14.7583 15.014C15.1021 14.7861 15.3888 14.4879 15.5978 14.1409H13.8578C13.4833 14.1409 13.1243 13.9983 12.8595 13.7445C12.5947 13.4907 12.446 13.1464 12.446 12.7875V10.0806C12.446 9.72164 12.5947 9.37739 12.8595 9.12357C13.1243 8.86976 13.4833 8.72716 13.8578 8.72716H15.9316C15.7594 7.419 15.0951 6.21605 14.0635 5.34404C13.0318 4.47203 11.7037 3.99088 10.3284 3.99088C8.95298 3.99088 7.62487 4.47203 6.59323 5.34404C5.56159 6.21605 4.89732 7.419 4.72506 8.72716H6.79894C7.17337 8.72716 7.53245 8.86976 7.79721 9.12357C8.06197 9.37739 8.21071 9.72164 8.21071 10.0806V12.7875C8.21071 13.1464 8.06197 13.4907 7.79721 13.7445C7.53245 13.9983 7.17337 14.1409 6.79894 14.1409H4.6813C4.30687 14.1409 3.94778 13.9983 3.68303 13.7445C3.41827 13.4907 3.26953 13.1464 3.26953 12.7875V9.40388C3.26953 5.66638 6.42977 2.63672 10.3284 2.63672C14.2269 2.63672 17.3872 5.66638 17.3872 9.40388V12.7888ZM15.9754 12.7875V10.0806H13.8578V12.7875H15.9754ZM4.6813 10.0806V12.7875H6.79894V10.0806H4.6813Z" fill="white"/>
<circle cx="17.9741" cy="17.3471" r="2.14017" fill="#56BD7C" stroke="white" stroke-width="0.750163"/>
</svg>
