<svg width="20" height="19" viewBox="0 0 20 19" fill="none" xmlns="http://www.w3.org/2000/svg">
<path d="M0.933594 3.26534C0.933594 2.64278 1.18346 2.04571 1.62823 1.6055C2.07299 1.16528 2.67622 0.917969 3.30522 0.917969L17.5349 0.917969C18.1639 0.917969 18.7672 1.16528 19.2119 1.6055C19.6567 2.04571 19.9066 2.64278 19.9066 3.26534V12.6548C19.9066 13.2774 19.6567 13.8744 19.2119 14.3146C18.7672 14.7549 18.1639 15.0022 17.5349 15.0022H14.5704C14.3863 15.0022 14.2048 15.0446 14.0401 15.1261C13.8755 15.2076 13.7322 15.3259 13.6218 15.4716L11.3687 18.4446C11.2583 18.5904 11.115 18.7087 10.9504 18.7902C10.7857 18.8716 10.6042 18.9141 10.4201 18.9141C10.236 18.9141 10.0544 18.8716 9.88977 18.7902C9.72511 18.7087 9.58189 18.5904 9.47143 18.4446L7.21839 15.4716C7.10794 15.3259 6.96471 15.2076 6.80005 15.1261C6.6354 15.0446 6.45383 15.0022 6.26974 15.0022H3.30522C2.67622 15.0022 2.07299 14.7549 1.62823 14.3146C1.18346 13.8744 0.933594 13.2774 0.933594 12.6548V3.26534ZM6.86265 7.96007C6.86265 7.64879 6.73771 7.35026 6.51533 7.13015C6.29295 6.91004 5.99133 6.78639 5.67684 6.78639C5.36234 6.78639 5.06072 6.91004 4.83834 7.13015C4.61596 7.35026 4.49103 7.64879 4.49103 7.96007C4.49103 8.27135 4.61596 8.56988 4.83834 8.78999C5.06072 9.0101 5.36234 9.13376 5.67684 9.13376C5.99133 9.13376 6.29295 9.0101 6.51533 8.78999C6.73771 8.56988 6.86265 8.27135 6.86265 7.96007ZM11.6059 7.96007C11.6059 7.64879 11.481 7.35026 11.2586 7.13015C11.0362 6.91004 10.7346 6.78639 10.4201 6.78639C10.1056 6.78639 9.80397 6.91004 9.58159 7.13015C9.3592 7.35026 9.23427 7.64879 9.23427 7.96007C9.23427 8.27135 9.3592 8.56988 9.58159 8.78999C9.80397 9.0101 10.1056 9.13376 10.4201 9.13376C10.7346 9.13376 11.0362 9.0101 11.2586 8.78999C11.481 8.56988 11.6059 8.27135 11.6059 7.96007ZM15.1633 9.13376C15.4778 9.13376 15.7794 9.0101 16.0018 8.78999C16.2242 8.56988 16.3491 8.27135 16.3491 7.96007C16.3491 7.64879 16.2242 7.35026 16.0018 7.13015C15.7794 6.91004 15.4778 6.78639 15.1633 6.78639C14.8488 6.78639 14.5472 6.91004 14.3248 7.13015C14.1024 7.35026 13.9775 7.64879 13.9775 7.96007C13.9775 8.27135 14.1024 8.56988 14.3248 8.78999C14.5472 9.0101 14.8488 9.13376 15.1633 9.13376Z" fill="white"/>
</svg>
