<svg width="18" height="18" viewBox="0 0 18 18" fill="none" xmlns="http://www.w3.org/2000/svg">
<circle cx="9" cy="9" r="9" fill="#DD5160"/>
<path fill-rule="evenodd" clip-rule="evenodd" d="M13.0631 6.1409C13.2941 5.90988 13.2941 5.53533 13.0631 5.30432C12.8321 5.07331 12.4575 5.0733 12.2265 5.30432L9.23535 8.2955L6.24417 5.30432C6.01316 5.0733 5.63861 5.07331 5.40759 5.30432C5.17658 5.53533 5.17658 5.90988 5.40759 6.1409L8.3984 9.13171L5.40759 12.1225C5.17658 12.3535 5.17658 12.7281 5.40759 12.9591C5.63861 13.1901 6.01316 13.1901 6.24417 12.9591L9.23535 9.96792L12.2265 12.9591C12.4575 13.1901 12.8321 13.1901 13.0631 12.9591C13.2941 12.7281 13.2941 12.3535 13.0631 12.1225L10.0723 9.13171L13.0631 6.1409Z" fill="white"/>
</svg>
